<mxfile host="app.diagrams.net" modified="2023-07-07T18:03:57.135Z" agent="Mozilla/5.0 (Windows NT 10.0; Win64; x64) AppleWebKit/537.36 (KHTML, like Gecko) Chrome/113.0.0.0 Safari/537.36 OPR/99.0.0.0" etag="ZY8NgJtJtHQfINIbFuii" version="21.6.1" type="device">
  <diagram name="PÃ¡gina-1" id="iDYZdwGdaC_di6ByPW9u">
    <mxGraphModel dx="2225" dy="743" grid="1" gridSize="10" guides="1" tooltips="1" connect="1" arrows="1" fold="1" page="1" pageScale="1" pageWidth="827" pageHeight="1169" math="0" shadow="0">
      <root>
        <mxCell id="0" />
        <mxCell id="1" parent="0" />
        <mxCell id="mHae93nvf5jGLBsYEnFw-1" value="&lt;font style=&quot;font-size: 18px;&quot;&gt;Pais&lt;/font&gt;" style="rounded=0;whiteSpace=wrap;html=1;" parent="1" vertex="1">
          <mxGeometry x="380" y="66" width="120" height="60" as="geometry" />
        </mxCell>
        <mxCell id="mHae93nvf5jGLBsYEnFw-3" value="&lt;font style=&quot;font-size: 18px;&quot;&gt;Region&lt;/font&gt;" style="rounded=0;whiteSpace=wrap;html=1;" parent="1" vertex="1">
          <mxGeometry x="380" y="340" width="120" height="60" as="geometry" />
        </mxCell>
        <mxCell id="mHae93nvf5jGLBsYEnFw-4" value="&lt;font style=&quot;font-size: 18px;&quot;&gt;Comuna&lt;/font&gt;" style="rounded=0;whiteSpace=wrap;html=1;" parent="1" vertex="1">
          <mxGeometry x="380" y="666" width="120" height="60" as="geometry" />
        </mxCell>
        <mxCell id="mHae93nvf5jGLBsYEnFw-5" value="nombre" style="ellipse;whiteSpace=wrap;html=1;" parent="1" vertex="1">
          <mxGeometry x="260" y="46" width="90" height="40" as="geometry" />
        </mxCell>
        <mxCell id="mHae93nvf5jGLBsYEnFw-6" value="codigo" style="ellipse;whiteSpace=wrap;html=1;" parent="1" vertex="1">
          <mxGeometry x="350" y="6" width="90" height="40" as="geometry" />
        </mxCell>
        <mxCell id="mHae93nvf5jGLBsYEnFw-7" value="continente" style="ellipse;whiteSpace=wrap;html=1;" parent="1" vertex="1">
          <mxGeometry x="450" y="6" width="90" height="40" as="geometry" />
        </mxCell>
        <mxCell id="mHae93nvf5jGLBsYEnFw-9" value="nombre" style="ellipse;whiteSpace=wrap;html=1;" parent="1" vertex="1">
          <mxGeometry x="490" y="290" width="90" height="40" as="geometry" />
        </mxCell>
        <mxCell id="mHae93nvf5jGLBsYEnFw-10" value="idRegion" style="ellipse;whiteSpace=wrap;html=1;" parent="1" vertex="1">
          <mxGeometry x="310" y="290" width="90" height="40" as="geometry" />
        </mxCell>
        <mxCell id="mHae93nvf5jGLBsYEnFw-11" value="nombre" style="ellipse;whiteSpace=wrap;html=1;" parent="1" vertex="1">
          <mxGeometry x="465" y="616" width="90" height="40" as="geometry" />
        </mxCell>
        <mxCell id="mHae93nvf5jGLBsYEnFw-12" value="idComuna" style="ellipse;whiteSpace=wrap;html=1;" parent="1" vertex="1">
          <mxGeometry x="324" y="616" width="90" height="40" as="geometry" />
        </mxCell>
        <mxCell id="mHae93nvf5jGLBsYEnFw-13" value="contiene" style="rhombus;whiteSpace=wrap;html=1;" parent="1" vertex="1">
          <mxGeometry x="400" y="496" width="80" height="80" as="geometry" />
        </mxCell>
        <mxCell id="mHae93nvf5jGLBsYEnFw-14" value="pertenece" style="rhombus;whiteSpace=wrap;html=1;" parent="1" vertex="1">
          <mxGeometry x="400" y="203" width="80" height="80" as="geometry" />
        </mxCell>
        <mxCell id="mHae93nvf5jGLBsYEnFw-15" value="" style="endArrow=none;html=1;rounded=0;entryX=0.5;entryY=1;entryDx=0;entryDy=0;exitX=0.5;exitY=0;exitDx=0;exitDy=0;" parent="1" source="mHae93nvf5jGLBsYEnFw-14" target="mHae93nvf5jGLBsYEnFw-1" edge="1">
          <mxGeometry width="50" height="50" relative="1" as="geometry">
            <mxPoint x="370" y="433" as="sourcePoint" />
            <mxPoint x="420" y="383" as="targetPoint" />
          </mxGeometry>
        </mxCell>
        <mxCell id="mHae93nvf5jGLBsYEnFw-16" value="" style="endArrow=none;html=1;rounded=0;entryX=0.5;entryY=1;entryDx=0;entryDy=0;exitX=0.5;exitY=0;exitDx=0;exitDy=0;" parent="1" source="mHae93nvf5jGLBsYEnFw-3" target="mHae93nvf5jGLBsYEnFw-14" edge="1">
          <mxGeometry width="50" height="50" relative="1" as="geometry">
            <mxPoint x="370" y="366" as="sourcePoint" />
            <mxPoint x="420" y="316" as="targetPoint" />
          </mxGeometry>
        </mxCell>
        <mxCell id="mHae93nvf5jGLBsYEnFw-17" value="" style="endArrow=none;html=1;rounded=0;entryX=0.5;entryY=1;entryDx=0;entryDy=0;exitX=0.5;exitY=0;exitDx=0;exitDy=0;" parent="1" source="mHae93nvf5jGLBsYEnFw-4" target="mHae93nvf5jGLBsYEnFw-13" edge="1">
          <mxGeometry width="50" height="50" relative="1" as="geometry">
            <mxPoint x="370" y="576" as="sourcePoint" />
            <mxPoint x="420" y="526" as="targetPoint" />
          </mxGeometry>
        </mxCell>
        <mxCell id="mHae93nvf5jGLBsYEnFw-18" value="" style="endArrow=none;html=1;rounded=0;entryX=0.5;entryY=1;entryDx=0;entryDy=0;exitX=0.5;exitY=0;exitDx=0;exitDy=0;" parent="1" source="mHae93nvf5jGLBsYEnFw-13" target="mHae93nvf5jGLBsYEnFw-3" edge="1">
          <mxGeometry width="50" height="50" relative="1" as="geometry">
            <mxPoint x="370" y="576" as="sourcePoint" />
            <mxPoint x="420" y="526" as="targetPoint" />
          </mxGeometry>
        </mxCell>
        <mxCell id="mHae93nvf5jGLBsYEnFw-19" value="1" style="text;html=1;align=center;verticalAlign=middle;resizable=0;points=[];autosize=1;strokeColor=none;fillColor=none;" parent="1" vertex="1">
          <mxGeometry x="435" y="171" width="30" height="30" as="geometry" />
        </mxCell>
        <mxCell id="mHae93nvf5jGLBsYEnFw-20" value="N" style="text;html=1;align=center;verticalAlign=middle;resizable=0;points=[];autosize=1;strokeColor=none;fillColor=none;" parent="1" vertex="1">
          <mxGeometry x="445" y="281" width="30" height="30" as="geometry" />
        </mxCell>
        <mxCell id="mHae93nvf5jGLBsYEnFw-21" value="1" style="text;html=1;align=center;verticalAlign=middle;resizable=0;points=[];autosize=1;strokeColor=none;fillColor=none;" parent="1" vertex="1">
          <mxGeometry x="445" y="464" width="30" height="30" as="geometry" />
        </mxCell>
        <mxCell id="mHae93nvf5jGLBsYEnFw-22" value="N" style="text;html=1;align=center;verticalAlign=middle;resizable=0;points=[];autosize=1;strokeColor=none;fillColor=none;" parent="1" vertex="1">
          <mxGeometry x="445" y="574" width="30" height="30" as="geometry" />
        </mxCell>
        <mxCell id="mHae93nvf5jGLBsYEnFw-23" value="poblacion" style="ellipse;whiteSpace=wrap;html=1;" parent="1" vertex="1">
          <mxGeometry x="526" y="649" width="90" height="40" as="geometry" />
        </mxCell>
        <mxCell id="mHae93nvf5jGLBsYEnFw-26" value="&lt;span style=&quot;font-size: 18px;&quot;&gt;EstablecimientoEducacion&lt;/span&gt;" style="rounded=0;whiteSpace=wrap;html=1;" parent="1" vertex="1">
          <mxGeometry x="900" y="604" width="230" height="60" as="geometry" />
        </mxCell>
        <mxCell id="mHae93nvf5jGLBsYEnFw-27" value="&lt;font style=&quot;font-size: 18px;&quot;&gt;Seguridad&lt;/font&gt;" style="rounded=0;whiteSpace=wrap;html=1;" parent="1" vertex="1">
          <mxGeometry x="680" y="996" width="120" height="60" as="geometry" />
        </mxCell>
        <mxCell id="mHae93nvf5jGLBsYEnFw-28" value="&lt;span style=&quot;font-size: 18px;&quot;&gt;CentroSalud&lt;/span&gt;" style="rounded=0;whiteSpace=wrap;html=1;" parent="1" vertex="1">
          <mxGeometry x="40" y="990.5" width="120" height="60" as="geometry" />
        </mxCell>
        <mxCell id="mHae93nvf5jGLBsYEnFw-29" value="&lt;font style=&quot;font-size: 18px;&quot;&gt;Conectividad&lt;/font&gt;" style="rounded=0;whiteSpace=wrap;html=1;" parent="1" vertex="1">
          <mxGeometry x="-160" y="606" width="120" height="60" as="geometry" />
        </mxCell>
        <mxCell id="CeG8eldJHduytHwsFHsx-2" value="contiene" style="rhombus;whiteSpace=wrap;html=1;" parent="1" vertex="1">
          <mxGeometry x="100" y="656" width="80" height="80" as="geometry" />
        </mxCell>
        <mxCell id="CeG8eldJHduytHwsFHsx-3" value="contiene" style="rhombus;whiteSpace=wrap;html=1;" parent="1" vertex="1">
          <mxGeometry x="680" y="656" width="80" height="80" as="geometry" />
        </mxCell>
        <mxCell id="CeG8eldJHduytHwsFHsx-4" value="contiene" style="rhombus;whiteSpace=wrap;html=1;" parent="1" vertex="1">
          <mxGeometry x="244" y="806" width="80" height="80" as="geometry" />
        </mxCell>
        <mxCell id="CeG8eldJHduytHwsFHsx-5" value="contiene" style="rhombus;whiteSpace=wrap;html=1;" parent="1" vertex="1">
          <mxGeometry x="540" y="806" width="80" height="80" as="geometry" />
        </mxCell>
        <mxCell id="CeG8eldJHduytHwsFHsx-13" value="&lt;span style=&quot;font-size: 18px;&quot;&gt;tasaDenunciasDMCS&lt;/span&gt;" style="ellipse;whiteSpace=wrap;html=1;" parent="1" vertex="1">
          <mxGeometry x="822" y="1001.5" width="218" height="49" as="geometry" />
        </mxCell>
        <mxCell id="CeG8eldJHduytHwsFHsx-16" value="&lt;span style=&quot;font-size: 18px;&quot;&gt;conexionesInternet&lt;/span&gt;" style="ellipse;whiteSpace=wrap;html=1;" parent="1" vertex="1">
          <mxGeometry x="-390" y="547" width="220" height="57" as="geometry" />
        </mxCell>
        <mxCell id="CeG8eldJHduytHwsFHsx-20" value="&lt;span style=&quot;font-size: 18px;&quot;&gt;nombre&lt;/span&gt;" style="ellipse;whiteSpace=wrap;html=1;" parent="1" vertex="1">
          <mxGeometry x="1040" y="532" width="110" height="62" as="geometry" />
        </mxCell>
        <mxCell id="CeG8eldJHduytHwsFHsx-21" value="&lt;font style=&quot;font-size: 18px;&quot;&gt;pace&lt;/font&gt;" style="ellipse;whiteSpace=wrap;html=1;" parent="1" vertex="1">
          <mxGeometry x="920" y="676" width="90" height="60" as="geometry" />
        </mxCell>
        <mxCell id="xy5V9tSXiaHrxS7yJpzJ-5" value="" style="endArrow=none;html=1;rounded=0;exitX=1;exitY=0.5;exitDx=0;exitDy=0;entryX=0;entryY=0.5;entryDx=0;entryDy=0;" parent="1" source="mHae93nvf5jGLBsYEnFw-4" target="CeG8eldJHduytHwsFHsx-3" edge="1">
          <mxGeometry width="50" height="50" relative="1" as="geometry">
            <mxPoint x="560" y="726" as="sourcePoint" />
            <mxPoint x="610" y="676" as="targetPoint" />
          </mxGeometry>
        </mxCell>
        <mxCell id="xy5V9tSXiaHrxS7yJpzJ-6" value="" style="endArrow=none;html=1;rounded=0;exitX=1;exitY=0.5;exitDx=0;exitDy=0;entryX=0;entryY=0.5;entryDx=0;entryDy=0;" parent="1" source="CeG8eldJHduytHwsFHsx-3" target="mHae93nvf5jGLBsYEnFw-26" edge="1">
          <mxGeometry width="50" height="50" relative="1" as="geometry">
            <mxPoint x="560" y="726" as="sourcePoint" />
            <mxPoint x="610" y="676" as="targetPoint" />
          </mxGeometry>
        </mxCell>
        <mxCell id="xy5V9tSXiaHrxS7yJpzJ-9" value="&lt;font style=&quot;font-size: 18px;&quot;&gt;1&lt;/font&gt;" style="text;html=1;align=center;verticalAlign=middle;resizable=0;points=[];autosize=1;strokeColor=none;fillColor=none;" parent="1" vertex="1">
          <mxGeometry x="645" y="649" width="30" height="40" as="geometry" />
        </mxCell>
        <mxCell id="xy5V9tSXiaHrxS7yJpzJ-10" value="&lt;font style=&quot;font-size: 18px;&quot;&gt;N&lt;/font&gt;" style="text;html=1;align=center;verticalAlign=middle;resizable=0;points=[];autosize=1;strokeColor=none;fillColor=none;" parent="1" vertex="1">
          <mxGeometry x="745" y="649" width="40" height="40" as="geometry" />
        </mxCell>
        <mxCell id="xy5V9tSXiaHrxS7yJpzJ-11" value="" style="endArrow=none;html=1;rounded=0;entryX=1;entryY=1;entryDx=0;entryDy=0;exitX=0;exitY=0;exitDx=0;exitDy=0;" parent="1" source="CeG8eldJHduytHwsFHsx-5" target="mHae93nvf5jGLBsYEnFw-4" edge="1">
          <mxGeometry width="50" height="50" relative="1" as="geometry">
            <mxPoint x="560" y="976" as="sourcePoint" />
            <mxPoint x="610" y="926" as="targetPoint" />
          </mxGeometry>
        </mxCell>
        <mxCell id="xy5V9tSXiaHrxS7yJpzJ-12" value="" style="endArrow=none;html=1;rounded=0;entryX=1;entryY=1;entryDx=0;entryDy=0;exitX=0;exitY=0;exitDx=0;exitDy=0;" parent="1" source="mHae93nvf5jGLBsYEnFw-27" target="CeG8eldJHduytHwsFHsx-5" edge="1">
          <mxGeometry width="50" height="50" relative="1" as="geometry">
            <mxPoint x="560" y="976" as="sourcePoint" />
            <mxPoint x="610" y="926" as="targetPoint" />
          </mxGeometry>
        </mxCell>
        <mxCell id="xy5V9tSXiaHrxS7yJpzJ-13" value="&lt;font style=&quot;font-size: 18px;&quot;&gt;1&lt;/font&gt;" style="text;html=1;align=center;verticalAlign=middle;resizable=0;points=[];autosize=1;strokeColor=none;fillColor=none;" parent="1" vertex="1">
          <mxGeometry x="550" y="776" width="30" height="40" as="geometry" />
        </mxCell>
        <mxCell id="xy5V9tSXiaHrxS7yJpzJ-14" value="&lt;font style=&quot;font-size: 18px;&quot;&gt;1&lt;/font&gt;" style="text;html=1;align=center;verticalAlign=middle;resizable=0;points=[];autosize=1;strokeColor=none;fillColor=none;" parent="1" vertex="1">
          <mxGeometry x="630" y="866" width="30" height="40" as="geometry" />
        </mxCell>
        <mxCell id="xy5V9tSXiaHrxS7yJpzJ-15" value="" style="endArrow=none;html=1;rounded=0;entryX=0;entryY=1;entryDx=0;entryDy=0;exitX=1;exitY=0;exitDx=0;exitDy=0;" parent="1" source="CeG8eldJHduytHwsFHsx-4" target="mHae93nvf5jGLBsYEnFw-4" edge="1">
          <mxGeometry width="50" height="50" relative="1" as="geometry">
            <mxPoint x="290" y="886" as="sourcePoint" />
            <mxPoint x="340" y="836" as="targetPoint" />
          </mxGeometry>
        </mxCell>
        <mxCell id="xy5V9tSXiaHrxS7yJpzJ-16" value="" style="endArrow=none;html=1;rounded=0;exitX=1;exitY=0.5;exitDx=0;exitDy=0;entryX=0;entryY=1;entryDx=0;entryDy=0;" parent="1" source="mHae93nvf5jGLBsYEnFw-28" target="CeG8eldJHduytHwsFHsx-4" edge="1">
          <mxGeometry width="50" height="50" relative="1" as="geometry">
            <mxPoint x="290" y="886" as="sourcePoint" />
            <mxPoint x="340" y="836" as="targetPoint" />
          </mxGeometry>
        </mxCell>
        <mxCell id="xy5V9tSXiaHrxS7yJpzJ-17" value="&lt;font style=&quot;font-size: 18px;&quot;&gt;1&lt;/font&gt;" style="text;html=1;align=center;verticalAlign=middle;resizable=0;points=[];autosize=1;strokeColor=none;fillColor=none;" parent="1" vertex="1">
          <mxGeometry x="290" y="776" width="30" height="40" as="geometry" />
        </mxCell>
        <mxCell id="xy5V9tSXiaHrxS7yJpzJ-18" value="&lt;font style=&quot;font-size: 18px;&quot;&gt;N&lt;/font&gt;" style="text;html=1;align=center;verticalAlign=middle;resizable=0;points=[];autosize=1;strokeColor=none;fillColor=none;" parent="1" vertex="1">
          <mxGeometry x="245" y="883" width="40" height="40" as="geometry" />
        </mxCell>
        <mxCell id="xy5V9tSXiaHrxS7yJpzJ-19" value="" style="endArrow=none;html=1;rounded=0;entryX=0;entryY=0.5;entryDx=0;entryDy=0;exitX=1;exitY=0.5;exitDx=0;exitDy=0;" parent="1" source="mHae93nvf5jGLBsYEnFw-29" target="CeG8eldJHduytHwsFHsx-2" edge="1">
          <mxGeometry width="50" height="50" relative="1" as="geometry">
            <mxPoint x="170" y="806" as="sourcePoint" />
            <mxPoint x="220" y="756" as="targetPoint" />
          </mxGeometry>
        </mxCell>
        <mxCell id="xy5V9tSXiaHrxS7yJpzJ-20" value="" style="endArrow=none;html=1;rounded=0;entryX=0;entryY=0.5;entryDx=0;entryDy=0;exitX=1;exitY=0.5;exitDx=0;exitDy=0;" parent="1" source="CeG8eldJHduytHwsFHsx-2" target="mHae93nvf5jGLBsYEnFw-4" edge="1">
          <mxGeometry width="50" height="50" relative="1" as="geometry">
            <mxPoint x="170" y="806" as="sourcePoint" />
            <mxPoint x="220" y="756" as="targetPoint" />
          </mxGeometry>
        </mxCell>
        <mxCell id="xy5V9tSXiaHrxS7yJpzJ-21" value="&lt;font style=&quot;font-size: 18px;&quot;&gt;1&lt;/font&gt;" style="text;html=1;align=center;verticalAlign=middle;resizable=0;points=[];autosize=1;strokeColor=none;fillColor=none;" parent="1" vertex="1">
          <mxGeometry x="180" y="656" width="30" height="40" as="geometry" />
        </mxCell>
        <mxCell id="xy5V9tSXiaHrxS7yJpzJ-22" value="&lt;font style=&quot;font-size: 18px;&quot;&gt;1&lt;/font&gt;" style="text;html=1;align=center;verticalAlign=middle;resizable=0;points=[];autosize=1;strokeColor=none;fillColor=none;" parent="1" vertex="1">
          <mxGeometry x="60" y="649" width="30" height="40" as="geometry" />
        </mxCell>
        <mxCell id="xy5V9tSXiaHrxS7yJpzJ-30" value="&lt;span style=&quot;font-size: 18px;&quot;&gt;idConectividad&lt;/span&gt;" style="ellipse;whiteSpace=wrap;html=1;" parent="1" vertex="1">
          <mxGeometry x="-147" y="532" width="160" height="62" as="geometry" />
        </mxCell>
        <mxCell id="xy5V9tSXiaHrxS7yJpzJ-31" value="&lt;span style=&quot;font-size: 18px;&quot;&gt;idCentro&lt;/span&gt;" style="ellipse;whiteSpace=wrap;html=1;" parent="1" vertex="1">
          <mxGeometry x="60" y="1060" width="110" height="57" as="geometry" />
        </mxCell>
        <mxCell id="xy5V9tSXiaHrxS7yJpzJ-32" value="&lt;span style=&quot;font-size: 18px;&quot;&gt;idSeguridad&lt;/span&gt;" style="ellipse;whiteSpace=wrap;html=1;" parent="1" vertex="1">
          <mxGeometry x="700" y="1073" width="160" height="62" as="geometry" />
        </mxCell>
        <mxCell id="xy5V9tSXiaHrxS7yJpzJ-33" value="&lt;span style=&quot;font-size: 18px;&quot;&gt;idEstablecimiento&lt;/span&gt;" style="ellipse;whiteSpace=wrap;html=1;" parent="1" vertex="1">
          <mxGeometry x="860" y="526" width="160" height="62" as="geometry" />
        </mxCell>
        <mxCell id="xy5V9tSXiaHrxS7yJpzJ-34" value="viviendas" style="ellipse;whiteSpace=wrap;html=1;" parent="1" vertex="1">
          <mxGeometry x="520" y="703" width="90" height="40" as="geometry" />
        </mxCell>
        <mxCell id="xy5V9tSXiaHrxS7yJpzJ-35" value="superficie" style="ellipse;whiteSpace=wrap;html=1;" parent="1" vertex="1">
          <mxGeometry x="280" y="703" width="90" height="40" as="geometry" />
        </mxCell>
        <mxCell id="2JUj829IMvb7YQwTY2jj-2" value="&lt;span style=&quot;font-size: 18px;&quot;&gt;indiceVulnerabilidad&lt;/span&gt;" style="ellipse;whiteSpace=wrap;html=1;" parent="1" vertex="1">
          <mxGeometry x="462" y="1054" width="218" height="49" as="geometry" />
        </mxCell>
        <mxCell id="2JUj829IMvb7YQwTY2jj-5" value="&lt;font style=&quot;font-size: 18px;&quot;&gt;nombre&lt;/font&gt;" style="ellipse;whiteSpace=wrap;html=1;" parent="1" vertex="1">
          <mxGeometry x="80" y="940" width="70" height="40" as="geometry" />
        </mxCell>
        <mxCell id="2JUj829IMvb7YQwTY2jj-6" value="&lt;font style=&quot;font-size: 18px;&quot;&gt;telefono&lt;/font&gt;" style="ellipse;whiteSpace=wrap;html=1;" parent="1" vertex="1">
          <mxGeometry x="-20" y="950.5" width="90" height="40" as="geometry" />
        </mxCell>
        <mxCell id="2JUj829IMvb7YQwTY2jj-7" value="&lt;font style=&quot;font-size: 18px;&quot;&gt;direccion&lt;/font&gt;" style="ellipse;whiteSpace=wrap;html=1;" parent="1" vertex="1">
          <mxGeometry x="-40" y="1060" width="90" height="40" as="geometry" />
        </mxCell>
        <mxCell id="jC5HPdcK9-mXUmoJetob-1" value="" style="endArrow=none;html=1;rounded=0;entryX=0.5;entryY=1;entryDx=0;entryDy=0;" edge="1" parent="1" target="mHae93nvf5jGLBsYEnFw-4">
          <mxGeometry width="50" height="50" relative="1" as="geometry">
            <mxPoint x="440" y="820" as="sourcePoint" />
            <mxPoint x="490" y="810" as="targetPoint" />
          </mxGeometry>
        </mxCell>
        <mxCell id="jC5HPdcK9-mXUmoJetob-2" value="tiene" style="rhombus;whiteSpace=wrap;html=1;" vertex="1" parent="1">
          <mxGeometry x="400" y="820" width="80" height="80" as="geometry" />
        </mxCell>
        <mxCell id="jC5HPdcK9-mXUmoJetob-3" value="" style="endArrow=none;html=1;rounded=0;entryX=0.5;entryY=1;entryDx=0;entryDy=0;exitX=0.5;exitY=0;exitDx=0;exitDy=0;" edge="1" parent="1" source="jC5HPdcK9-mXUmoJetob-5" target="jC5HPdcK9-mXUmoJetob-2">
          <mxGeometry width="50" height="50" relative="1" as="geometry">
            <mxPoint x="360" y="980" as="sourcePoint" />
            <mxPoint x="430" y="923" as="targetPoint" />
          </mxGeometry>
        </mxCell>
        <mxCell id="jC5HPdcK9-mXUmoJetob-5" value="&lt;font style=&quot;font-size: 14px;&quot;&gt;IndiceBienestar&lt;/font&gt;" style="rounded=0;whiteSpace=wrap;html=1;" vertex="1" parent="1">
          <mxGeometry x="270" y="990.5" width="120" height="60" as="geometry" />
        </mxCell>
        <mxCell id="jC5HPdcK9-mXUmoJetob-6" value="1" style="text;html=1;align=center;verticalAlign=middle;resizable=0;points=[];autosize=1;strokeColor=none;fillColor=none;" vertex="1" parent="1">
          <mxGeometry x="445" y="798" width="30" height="30" as="geometry" />
        </mxCell>
        <mxCell id="jC5HPdcK9-mXUmoJetob-7" value="N" style="text;html=1;align=center;verticalAlign=middle;resizable=0;points=[];autosize=1;strokeColor=none;fillColor=none;" vertex="1" parent="1">
          <mxGeometry x="425" y="910" width="30" height="30" as="geometry" />
        </mxCell>
        <mxCell id="jC5HPdcK9-mXUmoJetob-8" value="&lt;font style=&quot;font-size: 14px;&quot;&gt;puntajeSeguridad&lt;/font&gt;" style="ellipse;whiteSpace=wrap;html=1;" vertex="1" parent="1">
          <mxGeometry x="262.5" y="1056" width="135" height="57" as="geometry" />
        </mxCell>
        <mxCell id="jC5HPdcK9-mXUmoJetob-9" value="&lt;font style=&quot;font-size: 14px;&quot;&gt;puntajeEducacion&lt;/font&gt;" style="ellipse;whiteSpace=wrap;html=1;" vertex="1" parent="1">
          <mxGeometry x="242.5" y="1117" width="175" height="57" as="geometry" />
        </mxCell>
        <mxCell id="jC5HPdcK9-mXUmoJetob-10" value="&lt;span style=&quot;font-size: 18px;&quot;&gt;idPuntaje&lt;/span&gt;" style="ellipse;whiteSpace=wrap;html=1;" vertex="1" parent="1">
          <mxGeometry x="390" y="950.5" width="95" height="57" as="geometry" />
        </mxCell>
        <mxCell id="jC5HPdcK9-mXUmoJetob-11" value="&lt;font style=&quot;font-size: 14px;&quot;&gt;puntajeSalud&lt;/font&gt;" style="ellipse;whiteSpace=wrap;html=1;" vertex="1" parent="1">
          <mxGeometry x="235" y="1174" width="190" height="57" as="geometry" />
        </mxCell>
        <mxCell id="jC5HPdcK9-mXUmoJetob-12" value="puntajeConectividad" style="ellipse;whiteSpace=wrap;html=1;" vertex="1" parent="1">
          <mxGeometry x="241.25" y="1231" width="178.75" height="49" as="geometry" />
        </mxCell>
        <mxCell id="jC5HPdcK9-mXUmoJetob-13" value="&lt;span style=&quot;font-size: 18px;&quot;&gt;PuntajeTotal&lt;/span&gt;" style="ellipse;whiteSpace=wrap;html=1;" vertex="1" parent="1">
          <mxGeometry x="265" y="1280" width="130" height="47" as="geometry" />
        </mxCell>
      </root>
    </mxGraphModel>
  </diagram>
</mxfile>
